<svg width="51" height="40" viewBox="0 0 51 40" fill="none" xmlns="http://www.w3.org/2000/svg">
<rect x="1.61621" y="1" width="47.7674" height="38" rx="3" fill="#F4F6FA" stroke="#476BF0" stroke-width="2"/>
<path d="M12.7285 26.5817L3.20584 35.6118C2.51504 36.2669 2.3937 37.3232 2.91798 38.1178C3.28135 38.6686 3.89705 39 4.55687 39H45.3458C47.6142 39 49.4287 37.1156 49.3429 34.8487L49.279 33.1614C49.2417 32.1742 48.8403 31.2357 48.1522 30.5267L36.8807 18.9136C35.2578 17.2416 32.555 17.3051 31.0125 19.0514L24.3091 26.6401C22.8027 28.3455 20.179 28.4524 18.5388 26.8753L18.2533 26.6009C16.7126 25.1194 14.2795 25.111 12.7285 26.5817Z" fill="#476BF0" fill-opacity="0.4" stroke="#476BF0" stroke-width="2"/>
<circle cx="12.7098" cy="12.0931" r="3.65116" fill="#476BF0" fill-opacity="0.12" stroke="#476BF0" stroke-width="2"/>
</svg>
