<svg width="60" height="55" viewBox="0 0 60 55" fill="none" xmlns="http://www.w3.org/2000/svg">
<rect x="10.6162" y="1" width="47.7674" height="38" rx="3" stroke="#476BF0" stroke-width="2"/>
<path d="M21.7285 26.5817L12.4977 35.3351C11.6684 36.1215 11.6101 37.4231 12.3658 38.2805C12.769 38.7379 13.3493 39 13.9591 39H54.221C56.4302 39 58.221 37.2091 58.221 35V33.2499C58.221 32.2097 57.8158 31.2104 57.0913 30.464L45.8807 18.9136C44.2578 17.2416 41.555 17.3051 40.0125 19.0514L33.3091 26.6401C31.8027 28.3455 29.179 28.4524 27.5388 26.8753L27.2533 26.6009C25.7126 25.1194 23.2795 25.111 21.7285 26.5817Z" fill="#476BF0" fill-opacity="0.6" stroke="#476BF0" stroke-width="2"/>
<circle cx="21.7093" cy="12.0931" r="3.65116" fill="#476BF0" fill-opacity="0.4" stroke="#476BF0" stroke-width="2"/>
<path d="M5.6628 20.6976L1.30024 37.5788C0.753216 39.6956 2.00706 41.8594 4.11557 42.4374L42.2584 52.8928C44.3936 53.478 46.598 52.2177 47.1768 50.0807L49.1512 42.7907" stroke="#476BF0" stroke-width="2" stroke-linecap="round"/>
</svg>
