<svg width="29" height="27" viewBox="0 0 29 27" fill="none" xmlns="http://www.w3.org/2000/svg">
<mask id="path-1-inside-1_178_27" fill="white">
<path fill-rule="evenodd" clip-rule="evenodd" d="M14.5928 0C7.13693 0 1.09277 6.04416 1.09277 13.5C1.09277 15.6934 1.61586 17.7646 2.5441 19.5957L0 26.9574L6.94891 24.629C9.12215 26.1246 11.7552 27 14.5928 27C22.0486 27 28.0928 20.9558 28.0928 13.5C28.0928 6.04416 22.0486 0 14.5928 0Z"/>
</mask>
<path fill-rule="evenodd" clip-rule="evenodd" d="M14.5928 0C7.13693 0 1.09277 6.04416 1.09277 13.5C1.09277 15.6934 1.61586 17.7646 2.5441 19.5957L0 26.9574L6.94891 24.629C9.12215 26.1246 11.7552 27 14.5928 27C22.0486 27 28.0928 20.9558 28.0928 13.5C28.0928 6.04416 22.0486 0 14.5928 0Z" fill="white"/>
<path d="M2.5441 19.5957L3.48925 19.9224L3.62772 19.5217L3.43604 19.1436L2.5441 19.5957ZM0 26.9574L-0.945152 26.6308L-1.60879 28.5511L0.317713 27.9056L0 26.9574ZM6.94891 24.629L7.5158 23.8052L7.10455 23.5222L6.63119 23.6808L6.94891 24.629ZM2.09277 13.5C2.09277 6.59644 7.68921 1 14.5928 1V-1C6.58464 -1 0.0927734 5.49187 0.0927734 13.5H2.09277ZM3.43604 19.1436C2.57721 17.4494 2.09277 15.5327 2.09277 13.5H0.0927734C0.0927734 15.8541 0.654515 18.0799 1.65216 20.0479L3.43604 19.1436ZM0.945152 27.2841L3.48925 19.9224L1.59895 19.2691L-0.945152 26.6308L0.945152 27.2841ZM6.63119 23.6808L-0.317713 26.0092L0.317713 27.9056L7.26662 25.5772L6.63119 23.6808ZM14.5928 26C11.9641 26 9.52761 25.1897 7.5158 23.8052L6.38201 25.4528C8.71669 27.0594 11.5464 28 14.5928 28V26ZM27.0928 13.5C27.0928 20.4036 21.4963 26 14.5928 26V28C22.6009 28 29.0928 21.5081 29.0928 13.5H27.0928ZM14.5928 1C21.4963 1 27.0928 6.59644 27.0928 13.5H29.0928C29.0928 5.49187 22.6009 -1 14.5928 -1V1Z" fill="#31BB04" mask="url(#path-1-inside-1_178_27)"/>
<path d="M12.75 7.25C12.75 6.00734 13.7573 5 15 5C16.2427 5 17.25 6.00734 17.25 7.25C17.25 8.49262 16.2427 9.5 15 9.5C13.7573 9.5 12.75 8.49262 12.75 7.25ZM20.7071 7.29291C20.3166 6.90238 19.6834 6.90238 19.2929 7.29291L16.5858 10H13.4142L10.7071 7.29291C10.3166 6.90238 9.6834 6.90238 9.2929 7.29291C8.90237 7.68344 8.90237 8.31659 9.2929 8.70712L12.25 11.6642V20C12.25 20.5523 12.6977 21 13.25 21H13.75C14.3023 21 14.75 20.5523 14.75 20V16.5H15.25V20C15.25 20.5523 15.6977 21 16.25 21H16.75C17.3023 21 17.75 20.5523 17.75 20V11.6642L20.7071 8.70709C21.0976 8.31656 21.0976 7.68344 20.7071 7.29291Z" fill="#2FA209"/>
</svg>
