<svg width="29" height="27" viewBox="0 0 29 27" fill="none" xmlns="http://www.w3.org/2000/svg">
<mask id="path-1-inside-1_178_26" fill="white">
<path fill-rule="evenodd" clip-rule="evenodd" d="M14.5928 0C7.13693 0 1.09277 6.04416 1.09277 13.5C1.09277 15.6934 1.61586 17.7646 2.5441 19.5957L0 26.9574L6.94891 24.629C9.12215 26.1246 11.7552 27 14.5928 27C22.0486 27 28.0928 20.9558 28.0928 13.5C28.0928 6.04416 22.0486 0 14.5928 0Z"/>
</mask>
<path fill-rule="evenodd" clip-rule="evenodd" d="M14.5928 0C7.13693 0 1.09277 6.04416 1.09277 13.5C1.09277 15.6934 1.61586 17.7646 2.5441 19.5957L0 26.9574L6.94891 24.629C9.12215 26.1246 11.7552 27 14.5928 27C22.0486 27 28.0928 20.9558 28.0928 13.5C28.0928 6.04416 22.0486 0 14.5928 0Z" fill="white"/>
<path d="M2.5441 19.5957L3.48925 19.9224L3.62772 19.5217L3.43604 19.1436L2.5441 19.5957ZM0 26.9574L-0.945152 26.6308L-1.60879 28.5511L0.317713 27.9056L0 26.9574ZM6.94891 24.629L7.5158 23.8052L7.10455 23.5222L6.63119 23.6808L6.94891 24.629ZM2.09277 13.5C2.09277 6.59644 7.68921 1 14.5928 1V-1C6.58464 -1 0.0927734 5.49187 0.0927734 13.5H2.09277ZM3.43604 19.1436C2.57721 17.4494 2.09277 15.5327 2.09277 13.5H0.0927734C0.0927734 15.8541 0.654515 18.0799 1.65216 20.0479L3.43604 19.1436ZM0.945152 27.2841L3.48925 19.9224L1.59895 19.2691L-0.945152 26.6308L0.945152 27.2841ZM6.63119 23.6808L-0.317713 26.0092L0.317713 27.9056L7.26662 25.5772L6.63119 23.6808ZM14.5928 26C11.9641 26 9.52761 25.1897 7.5158 23.8052L6.38201 25.4528C8.71669 27.0594 11.5464 28 14.5928 28V26ZM27.0928 13.5C27.0928 20.4036 21.4963 26 14.5928 26V28C22.6009 28 29.0928 21.5081 29.0928 13.5H27.0928ZM14.5928 1C21.4963 1 27.0928 6.59644 27.0928 13.5H29.0928C29.0928 5.49187 22.6009 -1 14.5928 -1V1Z" fill="#001AFF" mask="url(#path-1-inside-1_178_26)"/>
<path fill-rule="evenodd" clip-rule="evenodd" d="M16.5777 10.372H21.9187C23.2612 10.372 24.2657 11.903 23.9373 13.5018L22.759 19.9845C22.6529 21.0541 21.807 21.8987 20.7404 22H9.36289C8.28126 21.9164 7.41469 21.0674 7.30567 19.9845L6.05008 13.4825C5.76033 11.8836 6.7648 10.3526 8.10731 10.3526H13.9023L9.68162 5.30409C9.50882 4.96686 9.59759 4.55412 9.89363 4.3184C10.1897 4.08268 10.6105 4.08967 10.8986 4.33508L15.2835 9.51925L19.1468 4.33508C19.272 4.15548 19.4663 4.03657 19.6828 4.00712C19.8992 3.97767 20.1181 4.04037 20.2865 4.18004C20.6315 4.44753 20.7001 4.94259 20.441 5.2944L16.5777 10.372ZM21.2426 19.7035L22.421 13.2208C22.5122 12.8257 22.4237 12.4103 22.1795 12.0871C22.1176 11.9999 22.0239 11.9407 21.9187 11.9224H8.14594C8.0408 11.9407 7.94711 11.9999 7.88517 12.0871C7.64094 12.4103 7.55248 12.8257 7.64371 13.2208L8.82203 19.7035C8.89929 20.1589 9.16973 20.4205 9.32426 20.4205H20.7404C20.8949 20.4205 21.1654 20.1589 21.2426 19.7035Z" fill="#001AFF"/>
<path d="M15.3221 13.4631C14.8847 13.4631 14.5301 13.8188 14.5301 14.2577V17.1647C14.5354 17.5997 14.8884 17.9496 15.3221 17.9496C15.7595 17.9496 16.1141 17.5938 16.1141 17.155V14.248C16.1088 13.8129 15.7557 13.4631 15.3221 13.4631Z" fill="#001AFF"/>
<path d="M11.3139 14.0251C11.2058 13.743 10.9475 13.5468 10.6475 13.5189C10.3475 13.4911 10.0578 13.6365 9.89996 13.8939C9.74215 14.1514 9.74362 14.4764 9.90376 14.7325L11.4877 17.9011C11.6187 18.1712 11.8934 18.3411 12.1928 18.3372C12.3133 18.3404 12.4327 18.3137 12.5405 18.2597C12.7289 18.166 12.8724 18.001 12.9394 17.801C13.0065 17.6011 12.9915 17.3826 12.8978 17.1937L11.3139 14.0251Z" fill="#001AFF"/>
<path d="M20.4507 13.6181C20.2629 13.5214 20.0441 13.505 19.8441 13.5725C19.644 13.64 19.4796 13.7858 19.3882 13.9767L17.8043 17.1453C17.7106 17.3342 17.6956 17.5526 17.7627 17.7526C17.8297 17.9525 17.9732 18.1175 18.1616 18.2112C18.2697 18.2646 18.3889 18.2911 18.5093 18.2887C18.8087 18.2927 19.0834 18.1228 19.2144 17.8527L20.8273 14.684C20.9197 14.4928 20.9318 14.2724 20.861 14.0721C20.7903 13.8718 20.6425 13.7083 20.4507 13.6181Z" fill="#001AFF"/>
</svg>
