<svg width="33" height="32" viewBox="0 0 33 32" fill="none" xmlns="http://www.w3.org/2000/svg">
<mask id="path-1-inside-1_178_25" fill="white">
<path fill-rule="evenodd" clip-rule="evenodd" d="M17.1424 0C8.38415 0 1.28421 7.09994 1.28421 15.8582C1.28421 18.4345 1.89855 20.8672 2.98872 23.0181L0 31.6663L8.1631 28.9311C10.716 30.6879 13.8091 31.7163 17.1424 31.7163C25.9006 31.7163 33.0005 24.6164 33.0005 15.8582C33.0005 7.09994 25.9006 0 17.1424 0Z"/>
</mask>
<path fill-rule="evenodd" clip-rule="evenodd" d="M17.1424 0C8.38415 0 1.28421 7.09994 1.28421 15.8582C1.28421 18.4345 1.89855 20.8672 2.98872 23.0181L0 31.6663L8.1631 28.9311C10.716 30.6879 13.8091 31.7163 17.1424 31.7163C25.9006 31.7163 33.0005 24.6164 33.0005 15.8582C33.0005 7.09994 25.9006 0 17.1424 0Z" fill="white"/>
<path d="M2.98872 23.0181L3.93388 23.3447L4.07233 22.944L3.88069 22.5659L2.98872 23.0181ZM0 31.6663L-0.945152 31.3397L-1.60879 33.26L0.317713 32.6145L0 31.6663ZM8.1631 28.9311L8.73001 28.1073L8.31875 27.8243L7.84539 27.9829L8.1631 28.9311ZM2.28421 15.8582C2.28421 7.65223 8.93643 1 17.1424 1V-1C7.83186 -1 0.284206 6.54766 0.284206 15.8582H2.28421ZM3.88069 22.5659C2.8599 20.552 2.28421 18.2738 2.28421 15.8582H0.284206C0.284206 18.5951 0.93719 21.1825 2.09676 23.4702L3.88069 22.5659ZM0.945152 31.993L3.93388 23.3447L2.04357 22.6914L-0.945152 31.3397L0.945152 31.993ZM7.84539 27.9829L-0.317713 30.7181L0.317713 32.6145L8.48082 29.8793L7.84539 27.9829ZM17.1424 30.7163C14.0179 30.7163 11.1215 29.7531 8.73001 28.1073L7.5962 29.7549C10.3105 31.6228 13.6003 32.7163 17.1424 32.7163V30.7163ZM32.0005 15.8582C32.0005 24.0641 25.3483 30.7163 17.1424 30.7163V32.7163C26.4529 32.7163 34.0005 25.1687 34.0005 15.8582H32.0005ZM17.1424 1C25.3483 1 32.0005 7.65223 32.0005 15.8582H34.0005C34.0005 6.54766 26.4529 -1 17.1424 -1V1Z" fill="#FF005C" mask="url(#path-1-inside-1_178_25)"/>
<path d="M19 11H20C20.2652 11 20.5196 10.8946 20.7071 10.7071C20.8946 10.5196 21 10.2652 21 10C21 9.73478 20.8946 9.48043 20.7071 9.29289C20.5196 9.10536 20.2652 9 20 9H19C18.7348 9 18.4804 9.10536 18.2929 9.29289C18.1054 9.48043 18 9.73478 18 10C18 10.2652 18.1054 10.5196 18.2929 10.7071C18.4804 10.8946 18.7348 11 19 11ZM19 15H20C20.2652 15 20.5196 14.8946 20.7071 14.7071C20.8946 14.5196 21 14.2652 21 14C21 13.7348 20.8946 13.4804 20.7071 13.2929C20.5196 13.1054 20.2652 13 20 13H19C18.7348 13 18.4804 13.1054 18.2929 13.2929C18.1054 13.4804 18 13.7348 18 14C18 14.2652 18.1054 14.5196 18.2929 14.7071C18.4804 14.8946 18.7348 15 19 15ZM14 11H15C15.2652 11 15.5196 10.8946 15.7071 10.7071C15.8946 10.5196 16 10.2652 16 10C16 9.73478 15.8946 9.48043 15.7071 9.29289C15.5196 9.10536 15.2652 9 15 9H14C13.7348 9 13.4804 9.10536 13.2929 9.29289C13.1054 9.48043 13 9.73478 13 10C13 10.2652 13.1054 10.5196 13.2929 10.7071C13.4804 10.8946 13.7348 11 14 11ZM14 15H15C15.2652 15 15.5196 14.8946 15.7071 14.7071C15.8946 14.5196 16 14.2652 16 14C16 13.7348 15.8946 13.4804 15.7071 13.2929C15.5196 13.1054 15.2652 13 15 13H14C13.7348 13 13.4804 13.1054 13.2929 13.2929C13.1054 13.4804 13 13.7348 13 14C13 14.2652 13.1054 14.5196 13.2929 14.7071C13.4804 14.8946 13.7348 15 14 15ZM26 23H25V6C25 5.73478 24.8946 5.48043 24.7071 5.29289C24.5196 5.10536 24.2652 5 24 5H10C9.73478 5 9.48043 5.10536 9.29289 5.29289C9.10536 5.48043 9 5.73478 9 6V23H8C7.73478 23 7.48043 23.1054 7.29289 23.2929C7.10536 23.4804 7 23.7348 7 24C7 24.2652 7.10536 24.5196 7.29289 24.7071C7.48043 24.8946 7.73478 25 8 25H26C26.2652 25 26.5196 24.8946 26.7071 24.7071C26.8946 24.5196 27 24.2652 27 24C27 23.7348 26.8946 23.4804 26.7071 23.2929C26.5196 23.1054 26.2652 23 26 23ZM18 23H16V19H18V23ZM23 23H20V18C20 17.7348 19.8946 17.4804 19.7071 17.2929C19.5196 17.1054 19.2652 17 19 17H15C14.7348 17 14.4804 17.1054 14.2929 17.2929C14.1054 17.4804 14 17.7348 14 18V23H11V7H23V23Z" fill="#FF005C"/>
</svg>
